<mxfile host="app.diagrams.net" modified="2023-05-31T08:51:44.597Z" agent="Mozilla/5.0 (Windows NT 10.0; Win64; x64) AppleWebKit/537.36 (KHTML, like Gecko) Chrome/113.0.0.0 Safari/537.36" etag="9SvUukS2zDT7MQcmKstY" version="21.3.3" type="github">
  <diagram name="Page-1" id="vt6CG7qfETPf53c5Zaq6">
    <mxGraphModel dx="1050" dy="573" grid="1" gridSize="10" guides="1" tooltips="1" connect="1" arrows="1" fold="1" page="1" pageScale="1" pageWidth="1169" pageHeight="827" math="0" shadow="0">
      <root>
        <mxCell id="0" />
        <mxCell id="1" parent="0" />
        <mxCell id="o6KjNcjafDVB0qI-oDIq-11" value="DATA_41" style="shape=cylinder3;whiteSpace=wrap;html=1;boundedLbl=1;backgroundOutline=1;size=15;direction=south;" vertex="1" parent="1">
          <mxGeometry x="38" y="10" width="80" height="60" as="geometry" />
        </mxCell>
        <mxCell id="o6KjNcjafDVB0qI-oDIq-12" value="XHTD" style="shape=cylinder3;whiteSpace=wrap;html=1;boundedLbl=1;backgroundOutline=1;size=15;direction=south;" vertex="1" parent="1">
          <mxGeometry x="203" y="10" width="80" height="60" as="geometry" />
        </mxCell>
        <mxCell id="o6KjNcjafDVB0qI-oDIq-13" value="DBTG-XHTD" style="shape=cylinder3;whiteSpace=wrap;html=1;boundedLbl=1;backgroundOutline=1;size=15;direction=south;" vertex="1" parent="1">
          <mxGeometry x="372" y="10" width="80" height="60" as="geometry" />
        </mxCell>
        <mxCell id="o6KjNcjafDVB0qI-oDIq-14" value="FIN&lt;br&gt;KORE" style="shape=cylinder3;whiteSpace=wrap;html=1;boundedLbl=1;backgroundOutline=1;size=15;direction=south;" vertex="1" parent="1">
          <mxGeometry x="537" y="10" width="80" height="60" as="geometry" />
        </mxCell>
        <mxCell id="o6KjNcjafDVB0qI-oDIq-18" value="CR_DETAIL" style="swimlane;fontStyle=0;childLayout=stackLayout;horizontal=1;startSize=30;horizontalStack=0;resizeParent=1;resizeParentMax=0;resizeLast=0;collapsible=1;marginBottom=0;whiteSpace=wrap;html=1;" vertex="1" parent="1">
          <mxGeometry x="20" y="130" width="140" height="130" as="geometry" />
        </mxCell>
        <mxCell id="o6KjNcjafDVB0qI-oDIq-19" value="Pk: PARTY_ID" style="text;strokeColor=none;fillColor=none;align=left;verticalAlign=middle;spacingLeft=4;spacingRight=4;overflow=hidden;points=[[0,0.5],[1,0.5]];portConstraint=eastwest;rotatable=0;whiteSpace=wrap;html=1;" vertex="1" parent="o6KjNcjafDVB0qI-oDIq-18">
          <mxGeometry y="30" width="140" height="100" as="geometry" />
        </mxCell>
        <mxCell id="o6KjNcjafDVB0qI-oDIq-22" value="TF_CRM_01&lt;br&gt;Chiếc khấu" style="swimlane;fontStyle=0;childLayout=stackLayout;horizontal=1;startSize=30;horizontalStack=0;resizeParent=1;resizeParentMax=0;resizeLast=0;collapsible=1;marginBottom=0;whiteSpace=wrap;html=1;" vertex="1" parent="1">
          <mxGeometry x="500" y="130" width="140" height="120" as="geometry" />
        </mxCell>
        <mxCell id="o6KjNcjafDVB0qI-oDIq-23" value="Item 1" style="text;strokeColor=none;fillColor=none;align=left;verticalAlign=middle;spacingLeft=4;spacingRight=4;overflow=hidden;points=[[0,0.5],[1,0.5]];portConstraint=eastwest;rotatable=0;whiteSpace=wrap;html=1;" vertex="1" parent="o6KjNcjafDVB0qI-oDIq-22">
          <mxGeometry y="30" width="140" height="30" as="geometry" />
        </mxCell>
        <mxCell id="o6KjNcjafDVB0qI-oDIq-24" value="Item 2" style="text;strokeColor=none;fillColor=none;align=left;verticalAlign=middle;spacingLeft=4;spacingRight=4;overflow=hidden;points=[[0,0.5],[1,0.5]];portConstraint=eastwest;rotatable=0;whiteSpace=wrap;html=1;" vertex="1" parent="o6KjNcjafDVB0qI-oDIq-22">
          <mxGeometry y="60" width="140" height="30" as="geometry" />
        </mxCell>
        <mxCell id="o6KjNcjafDVB0qI-oDIq-25" value="Item 3" style="text;strokeColor=none;fillColor=none;align=left;verticalAlign=middle;spacingLeft=4;spacingRight=4;overflow=hidden;points=[[0,0.5],[1,0.5]];portConstraint=eastwest;rotatable=0;whiteSpace=wrap;html=1;" vertex="1" parent="o6KjNcjafDVB0qI-oDIq-22">
          <mxGeometry y="90" width="140" height="30" as="geometry" />
        </mxCell>
        <mxCell id="o6KjNcjafDVB0qI-oDIq-26" value="07.CRM_1_DN&lt;br&gt;_THE_CA_NHAN" style="swimlane;fontStyle=0;childLayout=stackLayout;horizontal=1;startSize=30;horizontalStack=0;resizeParent=1;resizeParentMax=0;resizeLast=0;collapsible=1;marginBottom=0;whiteSpace=wrap;html=1;" vertex="1" parent="1">
          <mxGeometry x="700" y="125" width="140" height="130" as="geometry" />
        </mxCell>
        <mxCell id="o6KjNcjafDVB0qI-oDIq-27" value="Pk: PARTY_ID" style="text;strokeColor=none;fillColor=none;align=left;verticalAlign=middle;spacingLeft=4;spacingRight=4;overflow=hidden;points=[[0,0.5],[1,0.5]];portConstraint=eastwest;rotatable=0;whiteSpace=wrap;html=1;" vertex="1" parent="o6KjNcjafDVB0qI-oDIq-26">
          <mxGeometry y="30" width="140" height="100" as="geometry" />
        </mxCell>
        <mxCell id="o6KjNcjafDVB0qI-oDIq-28" value="RPT_CRM_32&lt;br&gt;Vay &amp;amp; thấu chi" style="swimlane;fontStyle=0;childLayout=stackLayout;horizontal=1;startSize=30;horizontalStack=0;resizeParent=1;resizeParentMax=0;resizeLast=0;collapsible=1;marginBottom=0;whiteSpace=wrap;html=1;" vertex="1" parent="1">
          <mxGeometry x="600" y="310" width="140" height="130" as="geometry" />
        </mxCell>
        <mxCell id="o6KjNcjafDVB0qI-oDIq-29" value="Pk: PARTY_ID" style="text;strokeColor=none;fillColor=none;align=left;verticalAlign=middle;spacingLeft=4;spacingRight=4;overflow=hidden;points=[[0,0.5],[1,0.5]];portConstraint=eastwest;rotatable=0;whiteSpace=wrap;html=1;" vertex="1" parent="o6KjNcjafDVB0qI-oDIq-28">
          <mxGeometry y="30" width="140" height="100" as="geometry" />
        </mxCell>
      </root>
    </mxGraphModel>
  </diagram>
</mxfile>
